<mxfile host="app.diagrams.net" modified="2024-03-16T16:10:59.250Z" agent="Mozilla/5.0 (Windows NT 10.0; Win64; x64) AppleWebKit/537.36 (KHTML, like Gecko) Chrome/122.0.0.0 Safari/537.36" etag="r-rdvx61-dzxgeUoGV92" version="24.0.7" type="github">
  <diagram name="Page-1" id="deQQYedTCReJela6KzWR">
    <mxGraphModel dx="1674" dy="772" grid="1" gridSize="10" guides="1" tooltips="1" connect="1" arrows="1" fold="1" page="1" pageScale="1" pageWidth="850" pageHeight="1100" math="1" shadow="0">
      <root>
        <mxCell id="0" />
        <mxCell id="1" parent="0" />
        <mxCell id="N0OhpoiLMUUkGTIo0rU5-2" value="&lt;font style=&quot;font-size: 18px;&quot;&gt;&lt;b&gt;ZR355VSD+&lt;/b&gt;&lt;/font&gt;" style="rounded=0;whiteSpace=wrap;html=1;" parent="1" vertex="1">
          <mxGeometry x="130" y="610" width="160" height="80" as="geometry" />
        </mxCell>
        <mxCell id="N0OhpoiLMUUkGTIo0rU5-5" value="" style="endArrow=classic;html=1;rounded=0;entryX=0.056;entryY=-0.062;entryDx=0;entryDy=0;entryPerimeter=0;" parent="1" edge="1">
          <mxGeometry width="50" height="50" relative="1" as="geometry">
            <mxPoint x="211.04" y="564.96" as="sourcePoint" />
            <mxPoint x="210.00000000000003" y="610" as="targetPoint" />
          </mxGeometry>
        </mxCell>
        <mxCell id="N0OhpoiLMUUkGTIo0rU5-7" value="&lt;font style=&quot;font-size: 14px;&quot;&gt;$$n$$&lt;/font&gt;" style="text;html=1;align=center;verticalAlign=middle;whiteSpace=wrap;rounded=0;" parent="1" vertex="1">
          <mxGeometry x="180" y="530" width="60" height="30" as="geometry" />
        </mxCell>
        <mxCell id="N0OhpoiLMUUkGTIo0rU5-9" value="" style="endArrow=classic;html=1;rounded=0;" parent="1" edge="1">
          <mxGeometry width="50" height="50" relative="1" as="geometry">
            <mxPoint x="150" y="690" as="sourcePoint" />
            <mxPoint x="150" y="760" as="targetPoint" />
          </mxGeometry>
        </mxCell>
        <mxCell id="N0OhpoiLMUUkGTIo0rU5-10" value="&lt;font style=&quot;font-size: 14px;&quot;&gt;$$q_{FAD}$$&lt;/font&gt;" style="text;html=1;align=center;verticalAlign=middle;whiteSpace=wrap;rounded=0;" parent="1" vertex="1">
          <mxGeometry x="90" y="710" width="60" height="30" as="geometry" />
        </mxCell>
        <mxCell id="N0OhpoiLMUUkGTIo0rU5-11" value="&lt;font style=&quot;font-size: 18px;&quot;&gt;&lt;b&gt;Pressure vessel&lt;/b&gt;&lt;/font&gt;" style="rounded=1;whiteSpace=wrap;html=1;rotation=0;" parent="1" vertex="1">
          <mxGeometry x="130" y="760" width="80" height="140" as="geometry" />
        </mxCell>
        <mxCell id="N0OhpoiLMUUkGTIo0rU5-12" value="" style="endArrow=classic;html=1;rounded=0;" parent="1" edge="1">
          <mxGeometry width="50" height="50" relative="1" as="geometry">
            <mxPoint x="190" y="960" as="sourcePoint" />
            <mxPoint x="190" y="900" as="targetPoint" />
          </mxGeometry>
        </mxCell>
        <mxCell id="N0OhpoiLMUUkGTIo0rU5-13" value="&lt;font style=&quot;font-size: 14px;&quot;&gt;$$q_{FAD,demand}$$&lt;/font&gt;" style="text;html=1;align=center;verticalAlign=middle;whiteSpace=wrap;rounded=0;" parent="1" vertex="1">
          <mxGeometry x="210" y="910" width="60" height="30" as="geometry" />
        </mxCell>
        <mxCell id="N0OhpoiLMUUkGTIo0rU5-15" value="" style="endArrow=classic;html=1;rounded=0;" parent="1" edge="1">
          <mxGeometry width="50" height="50" relative="1" as="geometry">
            <mxPoint x="150" y="960" as="sourcePoint" />
            <mxPoint x="150" y="900" as="targetPoint" />
          </mxGeometry>
        </mxCell>
        <mxCell id="N0OhpoiLMUUkGTIo0rU5-16" value="&lt;font style=&quot;font-size: 14px;&quot;&gt;$$p_{out,demand}$$&lt;/font&gt;" style="text;html=1;align=center;verticalAlign=middle;whiteSpace=wrap;rounded=0;" parent="1" vertex="1">
          <mxGeometry x="70" y="910" width="60" height="30" as="geometry" />
        </mxCell>
        <mxCell id="N0OhpoiLMUUkGTIo0rU5-17" value="" style="endArrow=classic;html=1;rounded=0;entryX=0.875;entryY=-0.021;entryDx=0;entryDy=0;entryPerimeter=0;" parent="1" edge="1">
          <mxGeometry width="50" height="50" relative="1" as="geometry">
            <mxPoint x="190" y="692.94" as="sourcePoint" />
            <mxPoint x="190" y="760" as="targetPoint" />
          </mxGeometry>
        </mxCell>
        <mxCell id="N0OhpoiLMUUkGTIo0rU5-18" value="&lt;font style=&quot;font-size: 14px;&quot;&gt;$$p_{out,comp}$$&lt;/font&gt;" style="text;html=1;align=center;verticalAlign=middle;whiteSpace=wrap;rounded=0;" parent="1" vertex="1">
          <mxGeometry x="200" y="710" width="60" height="30" as="geometry" />
        </mxCell>
        <mxCell id="N0OhpoiLMUUkGTIo0rU5-19" value="" style="endArrow=classic;html=1;rounded=0;" parent="1" edge="1">
          <mxGeometry width="50" height="50" relative="1" as="geometry">
            <mxPoint x="290" y="690" as="sourcePoint" />
            <mxPoint x="330" y="750" as="targetPoint" />
          </mxGeometry>
        </mxCell>
        <mxCell id="N0OhpoiLMUUkGTIo0rU5-21" value="&lt;font style=&quot;font-size: 14px;&quot;&gt;$$P_{elec}$$&lt;/font&gt;" style="text;html=1;align=center;verticalAlign=middle;whiteSpace=wrap;rounded=0;" parent="1" vertex="1">
          <mxGeometry x="310" y="750" width="60" height="30" as="geometry" />
        </mxCell>
        <mxCell id="N0OhpoiLMUUkGTIo0rU5-22" value="" style="endArrow=classic;html=1;rounded=0;" parent="1" edge="1">
          <mxGeometry width="50" height="50" relative="1" as="geometry">
            <mxPoint x="290" y="630" as="sourcePoint" />
            <mxPoint x="450" y="630" as="targetPoint" />
          </mxGeometry>
        </mxCell>
        <mxCell id="N0OhpoiLMUUkGTIo0rU5-23" value="" style="endArrow=classic;html=1;rounded=0;entryX=1;entryY=0.75;entryDx=0;entryDy=0;" parent="1" edge="1">
          <mxGeometry width="50" height="50" relative="1" as="geometry">
            <mxPoint x="540" y="669" as="sourcePoint" />
            <mxPoint x="290" y="669" as="targetPoint" />
          </mxGeometry>
        </mxCell>
        <mxCell id="N0OhpoiLMUUkGTIo0rU5-24" value="&lt;font style=&quot;font-size: 14px;&quot;&gt;$$T_{in,comp}$$&lt;/font&gt;" style="text;html=1;align=center;verticalAlign=middle;whiteSpace=wrap;rounded=0;" parent="1" vertex="1">
          <mxGeometry x="390" y="670" width="60" height="30" as="geometry" />
        </mxCell>
        <mxCell id="N0OhpoiLMUUkGTIo0rU5-26" value="&lt;font style=&quot;font-size: 14px;&quot;&gt;$$T_{out,comp}$$&lt;/font&gt;" style="text;html=1;align=center;verticalAlign=middle;whiteSpace=wrap;rounded=0;" parent="1" vertex="1">
          <mxGeometry x="310" y="600" width="60" height="30" as="geometry" />
        </mxCell>
        <mxCell id="N0OhpoiLMUUkGTIo0rU5-29" value="" style="endArrow=none;html=1;rounded=0;" parent="1" edge="1">
          <mxGeometry width="50" height="50" relative="1" as="geometry">
            <mxPoint x="450" y="630" as="sourcePoint" />
            <mxPoint x="450" y="630" as="targetPoint" />
          </mxGeometry>
        </mxCell>
        <mxCell id="N0OhpoiLMUUkGTIo0rU5-34" value="&lt;font style=&quot;font-size: 18px;&quot;&gt;&lt;b&gt;ER425&lt;/b&gt;&lt;/font&gt;&lt;div&gt;&lt;font size=&quot;3&quot;&gt;&lt;b&gt;Customer heat&lt;/b&gt;&lt;/font&gt;&lt;/div&gt;&lt;div&gt;&lt;font size=&quot;3&quot;&gt;&lt;b&gt;&amp;nbsp;exchanger&lt;/b&gt;&lt;/font&gt;&lt;/div&gt;" style="rounded=0;whiteSpace=wrap;html=1;" parent="1" vertex="1">
          <mxGeometry x="450" y="570" width="140" height="70" as="geometry" />
        </mxCell>
        <mxCell id="N0OhpoiLMUUkGTIo0rU5-36" value="" style="endArrow=classic;html=1;rounded=0;" parent="1" edge="1">
          <mxGeometry width="50" height="50" relative="1" as="geometry">
            <mxPoint x="590" y="630" as="sourcePoint" />
            <mxPoint x="670" y="630" as="targetPoint" />
          </mxGeometry>
        </mxCell>
        <mxCell id="N0OhpoiLMUUkGTIo0rU5-37" value="&lt;font style=&quot;font-size: 14px;&quot;&gt;$$T_{int}$$&lt;/font&gt;" style="text;html=1;align=center;verticalAlign=middle;whiteSpace=wrap;rounded=0;" parent="1" vertex="1">
          <mxGeometry x="600" y="600" width="60" height="30" as="geometry" />
        </mxCell>
        <mxCell id="N0OhpoiLMUUkGTIo0rU5-40" value="&lt;font style=&quot;font-size: 18px;&quot;&gt;&lt;b&gt;ER425&lt;/b&gt;&lt;/font&gt;&lt;div&gt;&lt;font size=&quot;3&quot;&gt;&lt;b&gt;Cooler&lt;/b&gt;&lt;/font&gt;&lt;/div&gt;" style="whiteSpace=wrap;html=1;aspect=fixed;" parent="1" vertex="1">
          <mxGeometry x="670" y="610" width="80" height="80" as="geometry" />
        </mxCell>
        <mxCell id="N0OhpoiLMUUkGTIo0rU5-41" value="" style="endArrow=classic;html=1;rounded=0;" parent="1" edge="1">
          <mxGeometry width="50" height="50" relative="1" as="geometry">
            <mxPoint x="610" y="580" as="sourcePoint" />
            <mxPoint x="590" y="580" as="targetPoint" />
          </mxGeometry>
        </mxCell>
        <mxCell id="N0OhpoiLMUUkGTIo0rU5-44" value="" style="ellipse;whiteSpace=wrap;html=1;aspect=fixed;" parent="1" vertex="1">
          <mxGeometry x="540" y="650" width="40" height="40" as="geometry" />
        </mxCell>
        <mxCell id="N0OhpoiLMUUkGTIo0rU5-45" value="" style="triangle;whiteSpace=wrap;html=1;rotation=-180;fillColor=#000000;" parent="1" vertex="1">
          <mxGeometry x="540" y="655" width="20" height="30" as="geometry" />
        </mxCell>
        <mxCell id="N0OhpoiLMUUkGTIo0rU5-47" value="" style="endArrow=none;html=1;rounded=0;entryX=0;entryY=0.75;entryDx=0;entryDy=0;" parent="1" target="N0OhpoiLMUUkGTIo0rU5-40" edge="1">
          <mxGeometry width="50" height="50" relative="1" as="geometry">
            <mxPoint x="580" y="670" as="sourcePoint" />
            <mxPoint x="630" y="620" as="targetPoint" />
          </mxGeometry>
        </mxCell>
        <mxCell id="N0OhpoiLMUUkGTIo0rU5-49" value="" style="endArrow=none;html=1;rounded=0;exitX=-0.014;exitY=0.143;exitDx=0;exitDy=0;exitPerimeter=0;" parent="1" source="N0OhpoiLMUUkGTIo0rU5-34" edge="1">
          <mxGeometry width="50" height="50" relative="1" as="geometry">
            <mxPoint x="430" y="580.01" as="sourcePoint" />
            <mxPoint x="380" y="530" as="targetPoint" />
            <Array as="points">
              <mxPoint x="380" y="580" />
            </Array>
          </mxGeometry>
        </mxCell>
        <mxCell id="N0OhpoiLMUUkGTIo0rU5-50" value="" style="ellipse;whiteSpace=wrap;html=1;aspect=fixed;" parent="1" vertex="1">
          <mxGeometry x="360" y="490" width="40" height="40" as="geometry" />
        </mxCell>
        <mxCell id="N0OhpoiLMUUkGTIo0rU5-51" value="" style="triangle;whiteSpace=wrap;html=1;rotation=-90;fillColor=#000000;" parent="1" vertex="1">
          <mxGeometry x="370" y="490" width="20" height="30" as="geometry" />
        </mxCell>
        <mxCell id="N0OhpoiLMUUkGTIo0rU5-52" value="" style="endArrow=classic;html=1;rounded=0;entryX=-0.003;entryY=0.131;entryDx=0;entryDy=0;entryPerimeter=0;" parent="1" target="N0OhpoiLMUUkGTIo0rU5-53" edge="1">
          <mxGeometry width="50" height="50" relative="1" as="geometry">
            <mxPoint x="380" y="490" as="sourcePoint" />
            <mxPoint x="477" y="431" as="targetPoint" />
            <Array as="points">
              <mxPoint x="380" y="432" />
              <mxPoint x="380" y="320" />
            </Array>
          </mxGeometry>
        </mxCell>
        <mxCell id="N0OhpoiLMUUkGTIo0rU5-53" value="&lt;b&gt;&lt;font style=&quot;font-size: 18px;&quot;&gt;Thermal storage tank&lt;/font&gt;&lt;/b&gt;" style="rounded=1;whiteSpace=wrap;html=1;rotation=0;" parent="1" vertex="1">
          <mxGeometry x="480" y="300" width="80" height="150" as="geometry" />
        </mxCell>
        <mxCell id="N0OhpoiLMUUkGTIo0rU5-55" value="" style="endArrow=none;html=1;rounded=0;" parent="1" edge="1">
          <mxGeometry width="50" height="50" relative="1" as="geometry">
            <mxPoint x="480" y="430" as="sourcePoint" />
            <mxPoint x="610" y="580" as="targetPoint" />
            <Array as="points">
              <mxPoint x="460" y="430" />
              <mxPoint x="460" y="480" />
              <mxPoint x="460" y="550" />
              <mxPoint x="610" y="550" />
            </Array>
          </mxGeometry>
        </mxCell>
        <mxCell id="N0OhpoiLMUUkGTIo0rU5-56" value="" style="endArrow=classic;html=1;rounded=0;entryX=0.056;entryY=-0.062;entryDx=0;entryDy=0;entryPerimeter=0;" parent="1" edge="1">
          <mxGeometry width="50" height="50" relative="1" as="geometry">
            <mxPoint x="560" y="734.96" as="sourcePoint" />
            <mxPoint x="560" y="690" as="targetPoint" />
          </mxGeometry>
        </mxCell>
        <mxCell id="N0OhpoiLMUUkGTIo0rU5-57" value="&lt;font style=&quot;font-size: 14px;&quot;&gt;$$\dot m_{cw}$$&lt;/font&gt;" style="text;html=1;align=center;verticalAlign=middle;whiteSpace=wrap;rounded=0;" parent="1" vertex="1">
          <mxGeometry x="530" y="740" width="60" height="30" as="geometry" />
        </mxCell>
        <mxCell id="N0OhpoiLMUUkGTIo0rU5-58" value="" style="endArrow=classic;html=1;rounded=0;" parent="1" edge="1">
          <mxGeometry width="50" height="50" relative="1" as="geometry">
            <mxPoint x="320" y="510" as="sourcePoint" />
            <mxPoint x="360" y="510" as="targetPoint" />
          </mxGeometry>
        </mxCell>
        <mxCell id="N0OhpoiLMUUkGTIo0rU5-59" value="&lt;font style=&quot;font-size: 14px;&quot;&gt;$$\dot m_{cons}$$&lt;/font&gt;" style="text;html=1;align=center;verticalAlign=middle;whiteSpace=wrap;rounded=0;" parent="1" vertex="1">
          <mxGeometry x="260" y="495" width="60" height="30" as="geometry" />
        </mxCell>
        <mxCell id="N0OhpoiLMUUkGTIo0rU5-60" value="&lt;font style=&quot;font-size: 14px;&quot;&gt;$$T_{out,cons}$$&lt;/font&gt;" style="text;html=1;align=center;verticalAlign=middle;whiteSpace=wrap;rounded=0;" parent="1" vertex="1">
          <mxGeometry x="390" y="550" width="60" height="30" as="geometry" />
        </mxCell>
        <mxCell id="N0OhpoiLMUUkGTIo0rU5-63" value="&lt;font style=&quot;font-size: 14px;&quot;&gt;$$T_{in,cons}$$&lt;/font&gt;" style="text;html=1;align=center;verticalAlign=middle;whiteSpace=wrap;rounded=0;" parent="1" vertex="1">
          <mxGeometry x="515" y="520" width="60" height="30" as="geometry" />
        </mxCell>
        <mxCell id="N0OhpoiLMUUkGTIo0rU5-139" value="" style="endArrow=classic;html=1;rounded=0;" parent="1" edge="1">
          <mxGeometry width="50" height="50" relative="1" as="geometry">
            <mxPoint x="660" y="430" as="sourcePoint" />
            <mxPoint x="560" y="430" as="targetPoint" />
          </mxGeometry>
        </mxCell>
        <mxCell id="N0OhpoiLMUUkGTIo0rU5-141" value="" style="endArrow=none;html=1;rounded=0;" parent="1" edge="1">
          <mxGeometry width="50" height="50" relative="1" as="geometry">
            <mxPoint x="660" y="430" as="sourcePoint" />
            <mxPoint x="660" y="270" as="targetPoint" />
          </mxGeometry>
        </mxCell>
        <mxCell id="N0OhpoiLMUUkGTIo0rU5-144" value="" style="triangle;whiteSpace=wrap;html=1;rotation=-90;fillColor=#000000;" parent="1" vertex="1">
          <mxGeometry x="410" y="240" width="20" height="20" as="geometry" />
        </mxCell>
        <mxCell id="N0OhpoiLMUUkGTIo0rU5-145" value="" style="triangle;whiteSpace=wrap;html=1;rotation=-180;" parent="1" vertex="1">
          <mxGeometry x="420" y="230" width="20" height="20" as="geometry" />
        </mxCell>
        <mxCell id="N0OhpoiLMUUkGTIo0rU5-146" value="" style="triangle;whiteSpace=wrap;html=1;rotation=0;fillColor=#000000;" parent="1" vertex="1">
          <mxGeometry x="400" y="230" width="20" height="20" as="geometry" />
        </mxCell>
        <mxCell id="N0OhpoiLMUUkGTIo0rU5-148" value="" style="endArrow=classic;html=1;rounded=0;" parent="1" edge="1">
          <mxGeometry width="50" height="50" relative="1" as="geometry">
            <mxPoint x="260" y="240" as="sourcePoint" />
            <mxPoint x="220" y="180" as="targetPoint" />
            <Array as="points">
              <mxPoint x="220" y="240" />
            </Array>
          </mxGeometry>
        </mxCell>
        <mxCell id="N0OhpoiLMUUkGTIo0rU5-149" value="" style="rounded=0;whiteSpace=wrap;html=1;" parent="1" vertex="1">
          <mxGeometry x="170" y="130" width="100" height="50" as="geometry" />
        </mxCell>
        <mxCell id="N0OhpoiLMUUkGTIo0rU5-150" value="&lt;font style=&quot;font-size: 18px;&quot;&gt;&lt;b&gt;Gas boiler&lt;/b&gt;&lt;/font&gt;" style="text;html=1;align=center;verticalAlign=middle;whiteSpace=wrap;rounded=0;" parent="1" vertex="1">
          <mxGeometry x="190" y="140" width="60" height="30" as="geometry" />
        </mxCell>
        <mxCell id="N0OhpoiLMUUkGTIo0rU5-151" value="" style="endArrow=classic;html=1;rounded=0;" parent="1" edge="1">
          <mxGeometry width="50" height="50" relative="1" as="geometry">
            <mxPoint x="270" y="154.66000000000008" as="sourcePoint" />
            <mxPoint x="340" y="154.66000000000008" as="targetPoint" />
          </mxGeometry>
        </mxCell>
        <mxCell id="N0OhpoiLMUUkGTIo0rU5-152" value="&lt;font style=&quot;font-size: 18px;&quot;&gt;&lt;b&gt;Collector&lt;/b&gt;&lt;/font&gt;" style="ellipse;shape=doubleEllipse;whiteSpace=wrap;html=1;aspect=fixed;" parent="1" vertex="1">
          <mxGeometry x="342.5" y="111.25" width="87.5" height="87.5" as="geometry" />
        </mxCell>
        <mxCell id="N0OhpoiLMUUkGTIo0rU5-153" value="" style="endArrow=classic;html=1;rounded=0;" parent="1" source="N0OhpoiLMUUkGTIo0rU5-155" edge="1">
          <mxGeometry width="50" height="50" relative="1" as="geometry">
            <mxPoint x="170" y="180" as="sourcePoint" />
            <mxPoint x="130" y="210" as="targetPoint" />
          </mxGeometry>
        </mxCell>
        <mxCell id="N0OhpoiLMUUkGTIo0rU5-154" value="" style="endArrow=classic;html=1;rounded=0;" parent="1" target="N0OhpoiLMUUkGTIo0rU5-155" edge="1">
          <mxGeometry width="50" height="50" relative="1" as="geometry">
            <mxPoint x="170" y="180" as="sourcePoint" />
            <mxPoint x="130" y="210" as="targetPoint" />
          </mxGeometry>
        </mxCell>
        <mxCell id="N0OhpoiLMUUkGTIo0rU5-155" value="&lt;font style=&quot;font-size: 14px;&quot;&gt;&lt;b style=&quot;&quot;&gt;$$\dot Q_{gb}$$&lt;/b&gt;&lt;/font&gt;" style="text;html=1;align=center;verticalAlign=middle;whiteSpace=wrap;rounded=0;" parent="1" vertex="1">
          <mxGeometry x="90" y="210" width="60" height="30" as="geometry" />
        </mxCell>
        <mxCell id="N0OhpoiLMUUkGTIo0rU5-156" value="" style="ellipse;whiteSpace=wrap;html=1;aspect=fixed;" parent="1" vertex="1">
          <mxGeometry x="540" y="170" width="40" height="40" as="geometry" />
        </mxCell>
        <mxCell id="N0OhpoiLMUUkGTIo0rU5-157" value="" style="endArrow=classic;html=1;rounded=0;entryX=0.5;entryY=0;entryDx=0;entryDy=0;" parent="1" target="N0OhpoiLMUUkGTIo0rU5-156" edge="1">
          <mxGeometry width="50" height="50" relative="1" as="geometry">
            <mxPoint x="430" y="150" as="sourcePoint" />
            <mxPoint x="580" y="150" as="targetPoint" />
            <Array as="points">
              <mxPoint x="560" y="150" />
            </Array>
          </mxGeometry>
        </mxCell>
        <mxCell id="N0OhpoiLMUUkGTIo0rU5-158" value="" style="endArrow=classic;html=1;rounded=0;entryX=0;entryY=0.5;entryDx=0;entryDy=0;exitX=0.5;exitY=1;exitDx=0;exitDy=0;" parent="1" source="N0OhpoiLMUUkGTIo0rU5-156" target="N0OhpoiLMUUkGTIo0rU5-145" edge="1">
          <mxGeometry width="50" height="50" relative="1" as="geometry">
            <mxPoint x="580" y="210" as="sourcePoint" />
            <mxPoint x="630" y="160" as="targetPoint" />
            <Array as="points">
              <mxPoint x="560" y="230" />
              <mxPoint x="560" y="240" />
            </Array>
          </mxGeometry>
        </mxCell>
        <mxCell id="N0OhpoiLMUUkGTIo0rU5-159" value="" style="endArrow=classic;html=1;rounded=0;" parent="1" edge="1">
          <mxGeometry width="50" height="50" relative="1" as="geometry">
            <mxPoint x="379.30999999999995" y="61.25" as="sourcePoint" />
            <mxPoint x="379.30999999999995" y="111.25" as="targetPoint" />
          </mxGeometry>
        </mxCell>
        <mxCell id="N0OhpoiLMUUkGTIo0rU5-160" value="&lt;font style=&quot;font-size: 14px;&quot;&gt;&lt;b style=&quot;&quot;&gt;$$\dot Q_{demand}$$&lt;/b&gt;&lt;/font&gt;" style="text;html=1;align=center;verticalAlign=middle;whiteSpace=wrap;rounded=0;" parent="1" vertex="1">
          <mxGeometry x="350" y="30" width="60" height="30" as="geometry" />
        </mxCell>
        <mxCell id="N0OhpoiLMUUkGTIo0rU5-161" value="" style="triangle;whiteSpace=wrap;html=1;rotation=90;fillColor=#000000;" parent="1" vertex="1">
          <mxGeometry x="550" y="180" width="20" height="30" as="geometry" />
        </mxCell>
        <mxCell id="N0OhpoiLMUUkGTIo0rU5-162" value="" style="endArrow=classic;html=1;rounded=0;" parent="1" edge="1">
          <mxGeometry width="50" height="50" relative="1" as="geometry">
            <mxPoint x="620" y="190" as="sourcePoint" />
            <mxPoint x="580" y="190" as="targetPoint" />
          </mxGeometry>
        </mxCell>
        <mxCell id="N0OhpoiLMUUkGTIo0rU5-163" value="" style="endArrow=classic;html=1;rounded=0;" parent="1" source="N0OhpoiLMUUkGTIo0rU5-164" edge="1">
          <mxGeometry width="50" height="50" relative="1" as="geometry">
            <mxPoint x="440" y="200" as="sourcePoint" />
            <mxPoint x="419.06" y="240" as="targetPoint" />
          </mxGeometry>
        </mxCell>
        <mxCell id="N0OhpoiLMUUkGTIo0rU5-164" value="&lt;font style=&quot;font-size: 14px;&quot;&gt;$$x_{return}$$&lt;/font&gt;" style="text;html=1;align=center;verticalAlign=middle;whiteSpace=wrap;rounded=0;" parent="1" vertex="1">
          <mxGeometry x="420" y="180" width="60" height="30" as="geometry" />
        </mxCell>
        <mxCell id="N0OhpoiLMUUkGTIo0rU5-165" value="&lt;font style=&quot;font-size: 14px;&quot;&gt;$$T_{load,in}$$&lt;/font&gt;" style="text;html=1;align=center;verticalAlign=middle;whiteSpace=wrap;rounded=0;" parent="1" vertex="1">
          <mxGeometry x="470" y="210" width="60" height="30" as="geometry" />
        </mxCell>
        <mxCell id="N0OhpoiLMUUkGTIo0rU5-166" value="&lt;font style=&quot;font-size: 14px;&quot;&gt;$$T_{gb,in}$$&lt;/font&gt;" style="text;html=1;align=center;verticalAlign=middle;whiteSpace=wrap;rounded=0;" parent="1" vertex="1">
          <mxGeometry x="215" y="200" width="60" height="30" as="geometry" />
        </mxCell>
        <mxCell id="N0OhpoiLMUUkGTIo0rU5-167" value="&lt;font style=&quot;font-size: 14px;&quot;&gt;$$T_{gb,out}$$&lt;/font&gt;" style="text;html=1;align=center;verticalAlign=middle;whiteSpace=wrap;rounded=0;" parent="1" vertex="1">
          <mxGeometry x="275" y="120" width="60" height="30" as="geometry" />
        </mxCell>
        <mxCell id="N0OhpoiLMUUkGTIo0rU5-168" value="" style="endArrow=classic;html=1;rounded=0;exitX=0;exitY=1;exitDx=0;exitDy=0;" parent="1" source="N0OhpoiLMUUkGTIo0rU5-171" edge="1">
          <mxGeometry width="50" height="50" relative="1" as="geometry">
            <mxPoint x="433.1500000000001" y="80" as="sourcePoint" />
            <mxPoint x="400.0015083311098" y="113.7332414877792" as="targetPoint" />
            <Array as="points" />
          </mxGeometry>
        </mxCell>
        <mxCell id="N0OhpoiLMUUkGTIo0rU5-169" value="" style="endArrow=classic;html=1;rounded=0;entryX=0;entryY=0;entryDx=0;entryDy=0;" parent="1" target="N0OhpoiLMUUkGTIo0rU5-152" edge="1">
          <mxGeometry width="50" height="50" relative="1" as="geometry">
            <mxPoint x="320" y="90" as="sourcePoint" />
            <mxPoint x="356.2540783230884" y="120.00407832308883" as="targetPoint" />
          </mxGeometry>
        </mxCell>
        <mxCell id="N0OhpoiLMUUkGTIo0rU5-170" value="$$T_{demand,in}$$" style="text;html=1;align=center;verticalAlign=middle;whiteSpace=wrap;rounded=0;" parent="1" vertex="1">
          <mxGeometry x="282.5" y="60" width="60" height="30" as="geometry" />
        </mxCell>
        <mxCell id="N0OhpoiLMUUkGTIo0rU5-171" value="$$T_{demand,return}$$" style="text;html=1;align=center;verticalAlign=middle;whiteSpace=wrap;rounded=0;" parent="1" vertex="1">
          <mxGeometry x="420" y="50" width="60" height="30" as="geometry" />
        </mxCell>
        <mxCell id="N0OhpoiLMUUkGTIo0rU5-172" value="" style="endArrow=classic;html=1;rounded=0;entryX=1;entryY=0;entryDx=0;entryDy=0;" parent="1" target="N0OhpoiLMUUkGTIo0rU5-152" edge="1">
          <mxGeometry width="50" height="50" relative="1" as="geometry">
            <mxPoint x="470" y="100" as="sourcePoint" />
            <mxPoint x="550" y="70" as="targetPoint" />
          </mxGeometry>
        </mxCell>
        <mxCell id="N0OhpoiLMUUkGTIo0rU5-173" value="&lt;font style=&quot;font-size: 14px;&quot;&gt;$$\dot m_{coll,demand}$$&lt;/font&gt;" style="text;html=1;align=center;verticalAlign=middle;whiteSpace=wrap;rounded=0;" parent="1" vertex="1">
          <mxGeometry x="480" y="81.25" width="60" height="30" as="geometry" />
        </mxCell>
        <mxCell id="N0OhpoiLMUUkGTIo0rU5-174" value="" style="endArrow=none;html=1;rounded=0;exitX=0;exitY=0.5;exitDx=0;exitDy=0;" parent="1" edge="1">
          <mxGeometry width="50" height="50" relative="1" as="geometry">
            <mxPoint x="419.9999999999998" y="250.00000000000023" as="sourcePoint" />
            <mxPoint x="660" y="270" as="targetPoint" />
            <Array as="points">
              <mxPoint x="420" y="270" />
              <mxPoint x="600" y="270" />
            </Array>
          </mxGeometry>
        </mxCell>
        <mxCell id="N0OhpoiLMUUkGTIo0rU5-177" value="&lt;font style=&quot;font-size: 14px;&quot;&gt;$$\dot m_{coll}$$&lt;/font&gt;" style="text;html=1;align=center;verticalAlign=middle;whiteSpace=wrap;rounded=0;" parent="1" vertex="1">
          <mxGeometry x="620" y="175" width="60" height="30" as="geometry" />
        </mxCell>
        <mxCell id="N0OhpoiLMUUkGTIo0rU5-179" value="" style="endArrow=classic;html=1;rounded=0;" parent="1" edge="1">
          <mxGeometry width="50" height="50" relative="1" as="geometry">
            <mxPoint x="560" y="320" as="sourcePoint" />
            <mxPoint x="300" y="240" as="targetPoint" />
            <Array as="points">
              <mxPoint x="580" y="320" />
              <mxPoint x="580" y="290" />
              <mxPoint x="300" y="290" />
            </Array>
          </mxGeometry>
        </mxCell>
        <mxCell id="N0OhpoiLMUUkGTIo0rU5-180" value="" style="endArrow=classic;html=1;rounded=0;" parent="1" edge="1">
          <mxGeometry width="50" height="50" relative="1" as="geometry">
            <mxPoint x="400" y="240" as="sourcePoint" />
            <mxPoint x="300" y="240" as="targetPoint" />
          </mxGeometry>
        </mxCell>
        <mxCell id="N0OhpoiLMUUkGTIo0rU5-181" value="" style="endArrow=none;html=1;rounded=0;" parent="1" edge="1">
          <mxGeometry width="50" height="50" relative="1" as="geometry">
            <mxPoint x="260" y="240" as="sourcePoint" />
            <mxPoint x="300" y="240" as="targetPoint" />
          </mxGeometry>
        </mxCell>
        <mxCell id="N0OhpoiLMUUkGTIo0rU5-182" value="&lt;font style=&quot;font-size: 14px;&quot;&gt;$$T_{hot,out}$$&lt;/font&gt;" style="text;html=1;align=center;verticalAlign=middle;whiteSpace=wrap;rounded=0;" parent="1" vertex="1">
          <mxGeometry x="300" y="250" width="60" height="40" as="geometry" />
        </mxCell>
      </root>
    </mxGraphModel>
  </diagram>
</mxfile>
